<svg version="1.1" id="Layer_1" xmlns="http://www.w3.org/2000/svg" xmlns:xlink="http://www.w3.org/1999/xlink" x="0px" y="0px"
	 width="100%" viewBox="0 0 790 316" enable-background="new 0 0 790 316" xml:space="preserve">
<path fill="transparent" opacity="1.000000" stroke="none" 
	d="
M536.000000,317.000000 
	C357.373566,317.000000 179.247147,317.000000 1.060356,317.000000 
	C1.060356,211.730728 1.060356,106.461403 1.060356,1.096039 
	C264.209808,1.096039 527.419678,1.096039 790.814758,1.096039 
	C790.814758,106.333069 790.814758,211.666504 790.814758,317.000000 
	C706.127991,317.000000 621.313965,317.000000 536.000000,317.000000 
M507.732758,236.016068 
	C502.631592,236.016068 497.530396,236.016068 492.429230,236.016068 
	C492.452026,236.485367 492.474823,236.954651 492.497620,237.423950 
	C496.365875,239.522369 504.568970,239.412384 509.875549,237.157043 
	C511.971039,232.956833 511.579987,223.882416 508.616150,221.184372 
	C508.616150,226.449417 508.616150,231.182114 507.732758,236.016068 
M564.159912,236.174850 
	C547.388977,236.174850 530.618103,236.174850 513.847168,236.174850 
	C513.849426,236.714615 513.851746,237.254395 513.854004,237.794159 
	C561.314880,237.794159 608.775818,237.794159 656.236694,237.794159 
	C656.244080,237.219696 656.251465,236.645218 656.258850,236.070755 
	C642.499634,236.070755 628.740479,236.070755 614.691895,235.450912 
	C612.438110,232.812164 608.668274,230.404419 608.224243,227.489944 
	C607.047363,219.765564 607.308044,211.822159 607.665649,203.714508 
	C623.710815,198.140671 635.674438,187.632843 644.333557,172.240448 
	C647.176208,177.644547 649.532104,182.209702 651.971252,186.729935 
	C653.587219,189.724640 656.281067,192.581131 659.459534,190.830154 
	C662.677979,189.057144 665.404419,187.093353 669.300171,187.550354 
	C669.706482,187.598038 670.685181,185.568069 670.816162,184.434769 
	C670.971375,183.091782 670.495361,181.675827 670.236450,179.904892 
	C671.485535,180.211014 672.247681,180.496765 673.029663,180.569138 
	C674.718811,180.725479 677.362610,181.460403 677.906616,180.713577 
	C678.887146,179.367447 678.875061,177.092728 678.770752,175.234314 
	C678.701355,173.997726 677.816162,172.776077 677.186707,171.606613 
	C671.650330,161.320572 664.226685,152.669617 654.523193,146.123322 
	C652.118347,144.500961 650.918396,142.873062 650.758484,139.777969 
	C649.079102,107.265976 621.402161,80.737595 588.846130,80.218399 
	C556.466064,79.702011 528.695557,103.838501 524.847961,135.834396 
	C524.498352,138.741837 524.103882,141.643875 523.712280,144.688751 
	C512.489075,142.904099 501.682434,140.983063 490.805664,139.622757 
	C488.562592,139.342239 485.474335,140.577164 483.878357,142.198853 
	C482.805603,143.288879 483.674103,146.289383 483.674103,148.003067 
	C482.546021,149.919540 480.123718,152.784973 480.613525,153.426361 
	C482.404816,155.771866 485.166351,157.376389 487.214081,158.986206 
	C487.415009,158.941116 486.462158,158.897522 485.862976,159.336594 
	C483.898254,160.776367 482.062042,162.391541 480.176453,163.939301 
	C482.205811,165.389771 484.102844,167.808975 486.289581,168.107712 
	C492.660248,168.978073 499.209381,169.719925 505.571472,169.166580 
	C512.931396,168.526398 520.166748,166.453598 527.843872,164.925613 
	C535.388977,185.010788 550.055359,198.411209 571.559326,205.532806 
	C572.384521,206.409653 573.778259,207.196930 573.933044,208.179398 
	C574.498169,211.767044 574.409973,215.459854 575.007019,219.039810 
	C576.313110,226.870819 573.552979,232.236389 566.057556,235.081085 
	C565.645996,235.237274 565.376526,235.768143 564.159912,236.174850 
M301.937897,166.279205 
	C300.809570,165.989105 299.689941,165.658249 298.551605,165.415085 
	C284.147369,162.337936 269.429047,168.558060 262.863708,180.484436 
	C255.982666,192.984299 257.922729,210.210129 267.326019,220.105179 
	C276.171600,229.413345 290.861603,232.264984 303.878296,227.200729 
	C316.050415,222.465073 323.652374,210.797073 323.586182,196.951721 
	C323.517670,182.620590 316.272369,172.093063 301.937897,166.279205 
M145.314514,227.904968 
	C148.840363,225.696136 152.366211,223.487289 155.956787,221.237900 
	C156.077087,223.668137 156.189148,225.931763 156.304810,228.268341 
	C161.760666,228.268341 166.821793,228.268341 171.841156,228.268341 
	C171.841156,207.269791 171.841156,186.570862 171.841156,165.960236 
	C166.503342,165.960236 161.525803,165.960236 156.363800,165.960236 
	C156.164124,168.440857 155.976715,170.768982 155.762543,173.429626 
	C145.128983,164.652313 135.627045,162.521851 125.395309,166.567932 
	C114.375565,170.925613 108.787697,179.629807 107.339142,190.932022 
	C106.715965,195.794312 106.925758,200.972778 107.870338,205.789291 
	C111.401459,223.794708 126.944962,233.081558 145.314514,227.904968 
M353.563965,166.021912 
	C339.124695,171.157562 331.453766,181.194809 330.972229,195.582794 
	C330.483063,210.198944 337.428894,222.013321 349.455078,227.020966 
	C362.249542,232.348526 377.745880,229.389633 386.898010,219.871521 
	C396.542908,209.840958 398.494781,193.010056 391.473175,180.420425 
	C384.517426,167.948898 369.995270,162.251511 353.563965,166.021912 
M250.773315,228.398605 
	C251.177460,224.078323 251.581619,219.758041 252.033661,214.925720 
	C248.312866,214.925720 245.505615,215.008148 242.705307,214.903870 
	C239.542603,214.786118 237.732117,213.066422 237.715652,209.864853 
	C237.663620,199.747421 237.696426,189.629562 237.696426,178.986511 
	C242.425705,178.986511 246.831573,178.986511 251.443237,178.986511 
	C251.443237,174.378418 251.443237,170.299866 251.443237,165.705078 
	C246.842880,165.705078 242.438248,165.705078 237.491760,165.705078 
	C237.491760,160.295547 237.491760,155.390289 237.491760,150.592346 
	C231.861923,150.592346 226.809647,150.592346 221.372742,150.592346 
	C221.372742,155.734558 221.372742,160.513687 221.372742,165.479828 
	C218.754395,165.690903 216.510483,165.871796 214.233246,166.055374 
	C214.233246,170.402267 214.233246,174.492493 214.233246,178.807281 
	C216.722763,178.968750 218.967453,179.114334 221.438141,179.274582 
	C221.438141,181.292145 221.437698,182.943130 221.438217,184.594131 
	C221.440826,192.751740 221.310379,200.912048 221.476868,209.066315 
	C221.745148,222.207138 227.722641,228.136688 240.906281,228.565384 
	C243.899612,228.662704 246.899002,228.573181 250.773315,228.398605 
M192.772064,228.550293 
	C196.214020,228.550293 199.655975,228.550293 203.277786,228.550293 
	C203.277786,200.382370 203.277786,172.811066 203.277786,145.031448 
	C198.011536,145.031448 192.957092,145.031448 187.793884,145.031448 
	C187.793884,172.883560 187.793884,200.457794 187.793884,228.348160 
	C189.297272,228.422867 190.582870,228.486740 192.772064,228.550293 
M503.248962,203.967499 
	C501.096802,209.928894 502.975983,214.752777 508.027954,215.851807 
	C512.044800,216.725677 515.373352,215.429184 517.167053,211.641693 
	C518.938660,207.900970 518.108704,204.355362 514.764343,201.895416 
	C510.773560,198.959976 506.993622,199.829361 503.248962,203.967499 
M517.136475,222.653610 
	C516.158447,225.137543 515.180481,227.621475 514.202454,230.105408 
	C514.541016,230.296982 514.879578,230.488556 515.218140,230.680130 
	C520.248291,226.339203 525.278442,221.998276 530.917419,217.131912 
	C524.903442,216.345001 520.726013,217.886261 517.136475,222.653610 
z"/>
<path fill="#540198" opacity="1.000000" stroke="none" 
	d="
M571.070435,204.959442 
	C550.055359,198.411209 535.388977,185.010788 527.843872,164.925613 
	C520.166748,166.453598 512.931396,168.526398 505.571472,169.166580 
	C499.209381,169.719925 492.660248,168.978073 486.289581,168.107712 
	C484.102844,167.808975 482.205811,165.389771 480.176453,163.939301 
	C482.062042,162.391541 483.898254,160.776367 485.862976,159.336594 
	C486.462158,158.897522 487.415009,158.941116 487.214081,158.986206 
	C485.166351,157.376389 482.404816,155.771866 480.613525,153.426361 
	C480.123718,152.784973 482.546021,149.919540 483.674103,148.003067 
	C483.674103,146.289383 482.805603,143.288879 483.878357,142.198853 
	C485.474335,140.577164 488.562592,139.342239 490.805664,139.622757 
	C501.682434,140.983063 512.489075,142.904099 523.712280,144.688751 
	C524.103882,141.643875 524.498352,138.741837 524.847961,135.834396 
	C528.695557,103.838501 556.466064,79.702011 588.846130,80.218399 
	C621.402161,80.737595 649.079102,107.265976 650.758484,139.777969 
	C650.918396,142.873062 652.118347,144.500961 654.523193,146.123322 
	C664.226685,152.669617 671.650330,161.320572 677.186707,171.606613 
	C677.816162,172.776077 678.701355,173.997726 678.770752,175.234314 
	C678.875061,177.092728 678.887146,179.367447 677.906616,180.713577 
	C677.362610,181.460403 674.718811,180.725479 673.029663,180.569138 
	C672.247681,180.496765 671.485535,180.211014 670.236450,179.904892 
	C670.495361,181.675827 670.971375,183.091782 670.816162,184.434769 
	C670.685181,185.568069 669.706482,187.598038 669.300171,187.550354 
	C665.404419,187.093353 662.677979,189.057144 659.459534,190.830154 
	C656.281067,192.581131 653.587219,189.724640 651.971252,186.729935 
	C649.532104,182.209702 647.176208,177.644547 644.333557,172.240448 
	C635.674438,187.632843 623.710815,198.140671 607.079712,203.636017 
	C606.090454,202.802414 605.687134,202.047272 605.300415,201.323212 
	C604.058594,202.969223 602.993713,204.380692 601.602295,205.872864 
	C600.829224,205.971893 600.382629,205.990189 599.500610,205.960449 
	C593.411743,206.230072 587.758240,206.547714 581.862732,206.826385 
	C581.620667,206.787415 581.134827,206.720612 580.823364,206.514709 
	C578.690979,204.639984 576.870056,202.971146 575.926697,202.106567 
	C574.370544,203.020767 572.720459,203.990112 571.070435,204.959442 
M628.116089,128.594864 
	C624.001892,120.122849 617.809692,116.269569 609.235657,116.845955 
	C602.058289,117.328453 595.608398,122.312904 593.247314,129.201782 
	C590.822144,136.277176 592.565308,143.222733 598.112732,148.199814 
	C606.622864,140.718872 615.280701,140.933075 623.878418,148.439743 
	C629.288330,142.694687 630.424866,136.386932 628.116089,128.594864 
M557.990417,142.996902 
	C564.048340,142.096909 569.089111,144.240646 573.382324,148.324326 
	C580.815247,141.362640 581.177490,130.104248 574.345581,122.734261 
	C567.261597,115.092285 555.401062,114.699303 547.897278,121.857918 
	C540.252380,129.151154 540.115051,140.201752 547.351746,147.891388 
	C550.682678,146.267593 553.921631,144.688660 557.990417,142.996902 
M623.144348,153.482468 
	C622.265137,156.288116 620.388489,159.226685 620.740479,161.868286 
	C621.268311,165.829346 626.066650,167.815491 629.764587,166.546707 
	C633.825012,165.153564 635.967834,160.787308 634.478821,156.941040 
	C632.836548,152.699158 628.964966,151.297226 623.144348,153.482468 
M549.163147,161.631592 
	C549.930847,156.437363 547.548767,152.594299 543.126648,152.071518 
	C539.030823,151.587311 536.240173,153.688293 535.148071,157.350128 
	C533.962463,161.325668 535.485046,164.633118 539.495789,166.258301 
	C543.816956,168.009277 546.888306,166.331024 549.163147,161.631592 
M585.737915,147.231415 
	C585.349365,147.028809 584.960815,146.826202 584.572266,146.623627 
	C582.895203,153.207886 581.218079,159.792130 579.314087,167.267258 
	C587.847046,162.537338 588.885681,160.326294 587.037231,152.770309 
	C586.644592,151.165619 586.281616,149.553665 585.737915,147.231415 
z"/>
<path fill="#7A00DE" opacity="1.000000" stroke="none" 
	d="
M302.310242,166.428864 
	C316.272369,172.093063 323.517670,182.620590 323.586182,196.951721 
	C323.652374,210.797073 316.050415,222.465073 303.878296,227.200729 
	C290.861603,232.264984 276.171600,229.413345 267.326019,220.105179 
	C257.922729,210.210129 255.982666,192.984299 262.863708,180.484436 
	C269.429047,168.558060 284.147369,162.337936 298.551605,165.415085 
	C299.689941,165.658249 300.809570,165.989105 302.310242,166.428864 
z"/>
<path fill="#FAFAFA" opacity="1.000000" stroke="none" 
	d="
M144.943481,228.021255 
	C126.944962,233.081558 111.401459,223.794708 107.870338,205.789291 
	C106.925758,200.972778 106.715965,195.794312 107.339142,190.932022 
	C108.787697,179.629807 114.375565,170.925613 125.395309,166.567932 
	C135.627045,162.521851 145.128983,164.652313 155.762543,173.429626 
	C155.976715,170.768982 156.164124,168.440857 156.363800,165.960236 
	C161.525803,165.960236 166.503342,165.960236 171.841156,165.960236 
	C171.841156,186.570862 171.841156,207.269791 171.841156,228.268341 
	C166.821793,228.268341 161.760666,228.268341 156.304810,228.268341 
	C156.189148,225.931763 156.077087,223.668137 155.956787,221.237900 
	C152.366211,223.487289 148.840363,225.696136 144.943481,228.021255 
M126.664482,185.298080 
	C126.012032,186.452148 125.247559,187.557816 124.724586,188.767853 
	C119.878380,199.980896 125.705254,213.070511 136.424667,215.126984 
	C144.293793,216.636642 151.652832,212.720596 154.656128,205.425247 
	C158.224976,196.756119 155.576416,186.186935 148.691971,181.624863 
	C141.668579,176.970718 133.560181,178.132462 126.664482,185.298080 
z"/>
<path fill="#F9F9F9" opacity="1.000000" stroke="none" 
	d="
M353.958069,165.939453 
	C369.995270,162.251511 384.517426,167.948898 391.473175,180.420425 
	C398.494781,193.010056 396.542908,209.840958 386.898010,219.871521 
	C377.745880,229.389633 362.249542,232.348526 349.455078,227.020966 
	C337.428894,222.013321 330.483063,210.198944 330.972229,195.582794 
	C331.453766,181.194809 339.124695,171.157562 353.958069,165.939453 
M361.798645,215.597168 
	C370.572571,215.259979 375.716125,211.724792 378.117645,204.381073 
	C380.888428,195.907898 378.779449,186.471619 372.697479,182.113052 
	C370.504303,180.541306 367.689056,179.352310 365.026123,179.008896 
	C355.673645,177.802734 348.965088,183.426849 347.483490,193.225891 
	C345.663544,205.262939 350.555969,213.331680 361.798645,215.597168 
z"/>
<path fill="#F4F3F4" opacity="1.000000" stroke="none" 
	d="
M250.334473,228.484131 
	C246.899002,228.573181 243.899612,228.662704 240.906281,228.565384 
	C227.722641,228.136688 221.745148,222.207138 221.476868,209.066315 
	C221.310379,200.912048 221.440826,192.751740 221.438217,184.594131 
	C221.437698,182.943130 221.438141,181.292145 221.438141,179.274582 
	C218.967453,179.114334 216.722763,178.968750 214.233246,178.807281 
	C214.233246,174.492493 214.233246,170.402267 214.233246,166.055374 
	C216.510483,165.871796 218.754395,165.690903 221.372742,165.479828 
	C221.372742,160.513687 221.372742,155.734558 221.372742,150.592346 
	C226.809647,150.592346 231.861923,150.592346 237.491760,150.592346 
	C237.491760,155.390289 237.491760,160.295547 237.491760,165.705078 
	C242.438248,165.705078 246.842880,165.705078 251.443237,165.705078 
	C251.443237,170.299866 251.443237,174.378418 251.443237,178.986511 
	C246.831573,178.986511 242.425705,178.986511 237.696426,178.986511 
	C237.696426,189.629562 237.663620,199.747421 237.715652,209.864853 
	C237.732117,213.066422 239.542603,214.786118 242.705307,214.903870 
	C245.505615,215.008148 248.312866,214.925720 252.033661,214.925720 
	C251.581619,219.758041 251.177460,224.078323 250.334473,228.484131 
z"/>
<path fill="#FDFDFD" opacity="1.000000" stroke="none" 
	d="
M192.320267,228.550446 
	C190.582870,228.486740 189.297272,228.422867 187.793884,228.348160 
	C187.793884,200.457794 187.793884,172.883560 187.793884,145.031448 
	C192.957092,145.031448 198.011536,145.031448 203.277786,145.031448 
	C203.277786,172.811066 203.277786,200.382370 203.277786,228.550293 
	C199.655975,228.550293 196.214020,228.550293 192.320267,228.550446 
z"/>
<path fill="#7F3CB5" opacity="1.000000" stroke="none" 
	d="
M503.478149,203.661560 
	C506.993622,199.829361 510.773560,198.959976 514.764343,201.895416 
	C518.108704,204.355362 518.938660,207.900970 517.167053,211.641693 
	C515.373352,215.429184 512.044800,216.725677 508.027954,215.851807 
	C502.975983,214.752777 501.096802,209.928894 503.478149,203.661560 
z"/>
<path fill="#322F3E" opacity="1.000000" stroke="none" 
	d="
M601.928833,205.792145 
	C602.993713,204.380692 604.058594,202.969223 605.300415,201.323212 
	C605.687134,202.047272 606.090454,202.802414 606.745239,203.761719 
	C607.308044,211.822159 607.047363,219.765564 608.224243,227.489944 
	C608.668274,230.404419 612.438110,232.812164 614.601440,236.006332 
	C612.138062,236.682465 609.759094,236.972794 607.393738,236.886398 
	C603.255371,236.735275 599.125488,236.352737 595.150513,235.759430 
	C603.795227,232.215942 605.248840,225.610626 604.112183,217.562576 
	C603.721497,214.795990 604.227783,211.909042 603.923157,209.120911 
	C603.795471,207.952637 602.625122,206.898285 601.928833,205.792145 
z"/>
<path fill="#322F3E" opacity="1.000000" stroke="none" 
	d="
M571.314880,205.246124 
	C572.720459,203.990112 574.370544,203.020767 575.926697,202.106567 
	C576.870056,202.971146 578.690979,204.639984 580.445923,206.600830 
	C579.463562,207.294632 577.824707,207.593811 577.750671,208.115234 
	C577.340332,211.004517 577.024780,213.965805 577.207031,216.869156 
	C577.659851,224.082047 577.525696,231.635406 584.762939,236.284241 
	C578.761047,236.685745 573.005920,236.857407 567.249573,236.925980 
	C566.516663,236.934708 565.777344,236.404922 565.040955,236.124619 
	C565.376526,235.768143 565.645996,235.237274 566.057556,235.081085 
	C573.552979,232.236389 576.313110,226.870819 575.007019,219.039810 
	C574.409973,215.459854 574.498169,211.767044 573.933044,208.179398 
	C573.778259,207.196930 572.384521,206.409653 571.314880,205.246124 
z"/>
<path fill="#4E4E4E" opacity="1.000000" stroke="none" 
	d="
M564.600464,236.149734 
	C565.777344,236.404922 566.516663,236.934708 567.249573,236.925980 
	C573.005920,236.857407 578.761047,236.685745 585.213562,236.338013 
	C588.937744,236.109177 591.964844,236.088181 594.992004,236.067169 
	C599.125488,236.352737 603.255371,236.735275 607.393738,236.886398 
	C609.759094,236.972794 612.138062,236.682465 614.746094,236.316254 
	C628.740479,236.070755 642.499634,236.070755 656.258850,236.070755 
	C656.251465,236.645218 656.244080,237.219696 656.236694,237.794159 
	C608.775818,237.794159 561.314880,237.794159 513.854004,237.794159 
	C513.851746,237.254395 513.849426,236.714615 513.847168,236.174850 
	C530.618103,236.174850 547.388977,236.174850 564.600464,236.149734 
z"/>
<path fill="#DFDFDF" opacity="1.000000" stroke="none" 
	d="
M517.339111,222.356934 
	C520.726013,217.886261 524.903442,216.345001 530.917419,217.131912 
	C525.278442,221.998276 520.248291,226.339203 515.218140,230.680130 
	C514.879578,230.488556 514.541016,230.296982 514.202454,230.105408 
	C515.180481,227.621475 516.158447,225.137543 517.339111,222.356934 
z"/>
<path fill="#444344" opacity="1.000000" stroke="none" 
	d="
M508.979889,237.202957 
	C504.568970,239.412384 496.365875,239.522369 492.497620,237.423950 
	C492.474823,236.954651 492.452026,236.485367 492.429230,236.016068 
	C497.530396,236.016068 502.631592,236.016068 508.340546,236.266266 
	C508.958862,236.745300 508.969360,236.974121 508.979889,237.202957 
z"/>
<path fill="#DFDFDF" opacity="1.000000" stroke="none" 
	d="
M509.427734,237.179993 
	C508.969360,236.974121 508.958862,236.745300 508.782227,236.215637 
	C508.616150,231.182114 508.616150,226.449417 508.616150,221.184372 
	C511.579987,223.882416 511.971039,232.956833 509.427734,237.179993 
z"/>
<path fill="#FAF8FC" opacity="1.000000" stroke="none" 
	d="
M628.244568,128.960388 
	C630.424866,136.386932 629.288330,142.694687 623.878418,148.439743 
	C615.280701,140.933075 606.622864,140.718872 598.112732,148.199814 
	C592.565308,143.222733 590.822144,136.277176 593.247314,129.201782 
	C595.608398,122.312904 602.058289,117.328453 609.235657,116.845955 
	C617.809692,116.269569 624.001892,120.122849 628.244568,128.960388 
M606.105408,122.878418 
	C600.828125,122.848480 597.930481,125.152214 598.098511,129.244141 
	C598.256042,133.080780 601.879456,136.220917 605.595032,134.983017 
	C607.598633,134.315460 610.439636,131.909622 610.402405,130.347656 
	C610.344055,127.899155 608.169006,125.501114 606.105408,122.878418 
z"/>
<path fill="#FAF8FC" opacity="1.000000" stroke="none" 
	d="
M557.575439,143.053314 
	C553.921631,144.688660 550.682678,146.267593 547.351746,147.891388 
	C540.115051,140.201752 540.252380,129.151154 547.897278,121.857918 
	C555.401062,114.699303 567.261597,115.092285 574.345581,122.734261 
	C581.177490,130.104248 580.815247,141.362640 573.382324,148.324326 
	C569.089111,144.240646 564.048340,142.096909 557.575439,143.053314 
M550.655945,134.124313 
	C553.753418,135.931015 557.078064,136.006836 558.985718,132.977081 
	C560.155273,131.119614 560.574036,127.590836 559.547546,125.885483 
	C558.516113,124.171982 555.205078,122.850868 553.015564,123.012970 
	C548.062256,123.379669 546.781128,128.536926 550.655945,134.124313 
z"/>
<path fill="transparent" opacity="1.000000" stroke="none" 
	d="
M595.150513,235.759430 
	C591.964844,236.088181 588.937744,236.109177 585.459961,236.076416 
	C577.525696,231.635406 577.659851,224.082047 577.207031,216.869156 
	C577.024780,213.965805 577.340332,211.004517 577.750671,208.115234 
	C577.824707,207.593811 579.463562,207.294632 580.757446,206.806732 
	C581.134827,206.720612 581.620667,206.787415 582.120850,207.144958 
	C588.392639,207.004486 594.164368,206.506500 599.936035,206.008484 
	C600.382629,205.990189 600.829224,205.971893 601.602295,205.872864 
	C602.625122,206.898285 603.795471,207.952637 603.923157,209.120911 
	C604.227783,211.909042 603.721497,214.795990 604.112183,217.562576 
	C605.248840,225.610626 603.795227,232.215942 595.150513,235.759430 
z"/>
<path fill="#6B5FFA" opacity="1.000000" stroke="none" 
	d="
M623.476318,153.279877 
	C628.964966,151.297226 632.836548,152.699158 634.478821,156.941040 
	C635.967834,160.787308 633.825012,165.153564 629.764587,166.546707 
	C626.066650,167.815491 621.268311,165.829346 620.740479,161.868286 
	C620.388489,159.226685 622.265137,156.288116 623.476318,153.279877 
z"/>
<path fill="#6B5FFA" opacity="1.000000" stroke="none" 
	d="
M549.030701,161.980072 
	C546.888306,166.331024 543.816956,168.009277 539.495789,166.258301 
	C535.485046,164.633118 533.962463,161.325668 535.148071,157.350128 
	C536.240173,153.688293 539.030823,151.587311 543.126648,152.071518 
	C547.548767,152.594299 549.930847,156.437363 549.030701,161.980072 
z"/>
<path fill="#6A59F4" opacity="1.000000" stroke="none" 
	d="
M585.821411,147.588226 
	C586.281616,149.553665 586.644592,151.165619 587.037231,152.770309 
	C588.885681,160.326294 587.847046,162.537338 579.314087,167.267258 
	C581.218079,159.792130 582.895203,153.207886 584.572266,146.623627 
	C584.960815,146.826202 585.349365,147.028809 585.821411,147.588226 
z"/>
<path fill="#322F3E" opacity="1.000000" stroke="none" 
	d="
M599.500610,205.960464 
	C594.164368,206.506500 588.392639,207.004486 582.362915,207.183914 
	C587.758240,206.547714 593.411743,206.230072 599.500610,205.960464 
z"/>
<path fill="transparent" opacity="1.000000" stroke="none" 
	d="
M126.894051,185.006607 
	C133.560181,178.132462 141.668579,176.970718 148.691971,181.624863 
	C155.576416,186.186935 158.224976,196.756119 154.656128,205.425247 
	C151.652832,212.720596 144.293793,216.636642 136.424667,215.126984 
	C125.705254,213.070511 119.878380,199.980896 124.724586,188.767853 
	C125.247559,187.557816 126.012032,186.452148 126.894051,185.006607 
z"/>
<path fill="transparent" opacity="1.000000" stroke="none" 
	d="
M361.401855,215.561584 
	C350.555969,213.331680 345.663544,205.262939 347.483490,193.225891 
	C348.965088,183.426849 355.673645,177.802734 365.026123,179.008896 
	C367.689056,179.352310 370.504303,180.541306 372.697479,182.113052 
	C378.779449,186.471619 380.888428,195.907898 378.117645,204.381073 
	C375.716125,211.724792 370.572571,215.259979 361.401855,215.561584 
z"/>
<path fill="#46445C" opacity="1.000000" stroke="none" 
	d="
M606.497925,122.980057 
	C608.169006,125.501114 610.344055,127.899155 610.402405,130.347656 
	C610.439636,131.909622 607.598633,134.315460 605.595032,134.983017 
	C601.879456,136.220917 598.256042,133.080780 598.098511,129.244141 
	C597.930481,125.152214 600.828125,122.848480 606.497925,122.980057 
z"/>
<path fill="#46445C" opacity="1.000000" stroke="none" 
	d="
M550.332092,133.884323 
	C546.781128,128.536926 548.062256,123.379669 553.015564,123.012970 
	C555.205078,122.850868 558.516113,124.171982 559.547546,125.885483 
	C560.574036,127.590836 560.155273,131.119614 558.985718,132.977081 
	C557.078064,136.006836 553.753418,135.931015 550.332092,133.884323 
z"/>
</svg>