<svg xmlns="http://www.w3.org/2000/svg" xmlns:xlink="http://www.w3.org/1999/xlink" width="2560" zoomAndPan="magnify" viewBox="0 0 1920 487.499991" height="650" preserveAspectRatio="xMidYMid meet" version="1.0"><defs><clipPath id="71016bf001"><path d="M 9 88.046875 L 1719 88.046875 L 1719 399.34375 L 9 399.34375 Z M 9 88.046875 " clip-rule="nonzero"/></clipPath><clipPath id="8e55261eb7"><path d="M 94.316406 88.046875 C 78.578125 88.046875 64.585938 100.289062 64.585938 117.777344 L 64.585938 126.519531 C 64.585938 142.261719 78.578125 156.25 94.316406 156.25 C 110.058594 156.25 124.046875 142.261719 124.046875 126.519531 L 124.046875 117.777344 C 124.046875 100.289062 110.058594 88.046875 94.316406 88.046875 M 64.585938 220.960938 C 64.585938 220.960938 62.835938 219.210938 62.835938 220.960938 L 41.851562 269.925781 C 38.355469 276.921875 31.359375 282.167969 22.613281 282.167969 L 13.871094 282.167969 C 12.121094 282.167969 10.371094 282.167969 10.371094 280.421875 C 8.625 278.671875 8.625 276.921875 10.371094 275.175781 L 36.605469 213.964844 L 45.347656 189.480469 C 52.34375 175.488281 66.335938 164.996094 82.074219 164.996094 L 106.558594 164.996094 C 122.296875 164.996094 136.289062 175.488281 143.285156 189.480469 L 152.027344 213.964844 L 178.261719 275.175781 C 180.011719 276.921875 180.011719 278.671875 178.261719 280.421875 C 178.261719 282.167969 176.511719 282.167969 174.765625 282.167969 L 166.019531 282.167969 C 157.277344 282.167969 150.28125 276.921875 146.78125 269.925781 L 125.796875 220.960938 C 125.796875 219.210938 124.046875 220.960938 124.046875 220.960938 L 132.792969 282.167969 L 143.285156 394.097656 C 143.285156 395.84375 141.535156 395.84375 141.535156 397.59375 C 139.789062 397.59375 139.789062 399.34375 138.039062 399.34375 L 131.042969 399.34375 C 120.550781 399.34375 111.804688 392.347656 111.804688 381.855469 L 96.066406 287.414062 C 94.316406 287.414062 94.316406 287.414062 92.566406 287.414062 L 76.828125 381.855469 C 76.828125 392.347656 68.085938 399.34375 57.589844 399.34375 L 50.597656 399.34375 C 48.847656 399.34375 48.847656 397.59375 47.097656 397.59375 C 47.097656 395.84375 45.347656 395.84375 45.347656 394.097656 L 55.84375 282.167969 L 64.585938 220.960938 M 286.691406 88.046875 C 270.953125 88.046875 256.960938 100.289062 256.960938 117.777344 L 256.960938 126.519531 C 256.960938 142.261719 270.953125 156.25 286.691406 156.25 C 302.429688 156.25 316.421875 142.261719 316.421875 126.519531 L 316.421875 117.777344 C 316.421875 100.289062 302.429688 88.046875 286.691406 88.046875 M 256.960938 220.960938 C 256.960938 220.960938 255.210938 219.210938 255.210938 220.960938 L 234.226562 269.925781 C 230.726562 276.921875 223.730469 282.167969 214.988281 282.167969 L 206.242188 282.167969 C 204.496094 282.167969 202.746094 282.167969 202.746094 280.421875 C 200.996094 278.671875 200.996094 276.921875 202.746094 275.175781 L 228.980469 213.964844 L 237.722656 189.480469 C 244.71875 175.488281 258.710938 164.996094 274.449219 164.996094 L 298.933594 164.996094 C 314.671875 164.996094 328.664062 175.488281 335.660156 189.480469 L 344.402344 213.964844 L 370.636719 275.175781 C 372.386719 276.921875 372.386719 278.671875 370.636719 280.421875 C 370.636719 282.167969 368.886719 282.167969 367.136719 282.167969 L 358.394531 282.167969 C 349.648438 282.167969 342.65625 276.921875 339.15625 269.925781 L 318.171875 220.960938 C 318.171875 219.210938 316.421875 220.960938 316.421875 220.960938 L 325.164062 282.167969 L 335.660156 394.097656 C 335.660156 395.84375 333.910156 395.84375 333.910156 397.59375 C 332.160156 397.59375 332.160156 399.34375 330.414062 399.34375 L 323.417969 399.34375 C 312.925781 399.34375 304.179688 392.347656 304.179688 381.855469 L 288.441406 287.414062 C 286.691406 287.414062 286.691406 287.414062 284.941406 287.414062 L 269.203125 381.855469 C 269.203125 392.347656 260.457031 399.34375 249.964844 399.34375 L 242.96875 399.34375 C 241.222656 399.34375 241.222656 397.59375 239.472656 397.59375 C 239.472656 395.84375 237.722656 395.84375 237.722656 394.097656 L 248.214844 282.167969 L 256.960938 220.960938 M 479.066406 88.046875 C 463.324219 88.046875 449.335938 100.289062 449.335938 117.777344 L 449.335938 126.519531 C 449.335938 142.261719 463.324219 156.25 479.066406 156.25 C 494.804688 156.25 508.796875 142.261719 508.796875 126.519531 L 508.796875 117.777344 C 508.796875 100.289062 494.804688 88.046875 479.066406 88.046875 M 449.335938 220.960938 C 449.335938 220.960938 447.585938 219.210938 447.585938 220.960938 L 426.597656 269.925781 C 423.101562 276.921875 416.105469 282.167969 407.363281 282.167969 L 398.617188 282.167969 C 396.867188 282.167969 395.121094 282.167969 395.121094 280.421875 C 393.371094 278.671875 393.371094 276.921875 395.121094 275.175781 L 421.351562 213.964844 L 430.097656 189.480469 C 437.09375 175.488281 451.082031 164.996094 466.824219 164.996094 L 491.308594 164.996094 C 507.046875 164.996094 521.039062 175.488281 528.03125 189.480469 L 536.777344 213.964844 L 563.011719 275.175781 C 564.757812 276.921875 564.757812 278.671875 563.011719 280.421875 C 563.011719 282.167969 561.261719 282.167969 559.511719 282.167969 L 550.769531 282.167969 C 542.023438 282.167969 535.027344 276.921875 531.53125 269.925781 L 510.542969 220.960938 C 510.542969 219.210938 508.796875 220.960938 508.796875 220.960938 L 517.539062 282.167969 L 528.03125 394.097656 C 528.03125 395.84375 526.285156 395.84375 526.285156 397.59375 C 524.535156 397.59375 524.535156 399.34375 522.785156 399.34375 L 515.789062 399.34375 C 505.296875 399.34375 496.554688 392.347656 496.554688 381.855469 L 480.8125 287.414062 C 479.066406 287.414062 479.066406 287.414062 477.316406 287.414062 L 461.578125 381.855469 C 461.578125 392.347656 452.832031 399.34375 442.339844 399.34375 L 435.34375 399.34375 C 433.59375 399.34375 433.59375 397.59375 431.847656 397.59375 C 431.847656 395.84375 430.097656 395.84375 430.097656 394.097656 L 440.589844 282.167969 L 449.335938 220.960938 M 671.4375 88.046875 C 655.699219 88.046875 641.707031 100.289062 641.707031 117.777344 L 641.707031 126.519531 C 641.707031 142.261719 655.699219 156.25 671.4375 156.25 C 687.179688 156.25 701.167969 142.261719 701.167969 126.519531 L 701.167969 117.777344 C 701.167969 100.289062 687.179688 88.046875 671.4375 88.046875 M 641.707031 220.960938 C 641.707031 220.960938 639.960938 219.210938 639.960938 220.960938 L 618.972656 269.925781 C 615.476562 276.921875 608.480469 282.167969 599.734375 282.167969 L 590.992188 282.167969 C 589.242188 282.167969 587.492188 282.167969 587.492188 280.421875 C 585.746094 278.671875 585.746094 276.921875 587.492188 275.175781 L 613.726562 213.964844 L 622.472656 189.480469 C 629.464844 175.488281 643.457031 164.996094 659.195312 164.996094 L 683.679688 164.996094 C 699.421875 164.996094 713.410156 175.488281 720.40625 189.480469 L 729.152344 213.964844 L 755.382812 275.175781 C 757.132812 276.921875 757.132812 278.671875 755.382812 280.421875 C 755.382812 282.167969 753.636719 282.167969 751.886719 282.167969 L 743.140625 282.167969 C 734.398438 282.167969 727.402344 276.921875 723.90625 269.925781 L 702.917969 220.960938 C 702.917969 219.210938 701.167969 220.960938 701.167969 220.960938 L 709.914062 282.167969 L 720.40625 394.097656 C 720.40625 395.84375 718.65625 395.84375 718.65625 397.59375 C 716.910156 397.59375 716.910156 399.34375 715.160156 399.34375 L 708.164062 399.34375 C 697.671875 399.34375 688.925781 392.347656 688.925781 381.855469 L 673.1875 287.414062 C 671.4375 287.414062 671.4375 287.414062 669.691406 287.414062 L 653.949219 381.855469 C 653.949219 392.347656 645.207031 399.34375 634.714844 399.34375 L 627.71875 399.34375 C 625.96875 399.34375 625.96875 397.59375 624.21875 397.59375 C 624.21875 395.84375 622.472656 395.84375 622.472656 394.097656 L 632.964844 282.167969 L 641.707031 220.960938 M 863.8125 88.046875 C 848.074219 88.046875 834.082031 100.289062 834.082031 117.777344 L 834.082031 126.519531 C 834.082031 142.261719 848.074219 156.25 863.8125 156.25 C 879.550781 156.25 893.542969 142.261719 893.542969 126.519531 L 893.542969 117.777344 C 893.542969 100.289062 879.550781 88.046875 863.8125 88.046875 M 834.082031 220.960938 C 834.082031 220.960938 832.332031 219.210938 832.332031 220.960938 L 811.347656 269.925781 C 807.851562 276.921875 800.855469 282.167969 792.109375 282.167969 L 783.367188 282.167969 C 781.617188 282.167969 779.867188 282.167969 779.867188 280.421875 C 778.117188 278.671875 778.117188 276.921875 779.867188 275.175781 L 806.101562 213.964844 L 814.84375 189.480469 C 821.839844 175.488281 835.832031 164.996094 851.570312 164.996094 L 876.054688 164.996094 C 891.792969 164.996094 905.785156 175.488281 912.78125 189.480469 L 921.523438 213.964844 L 947.757812 275.175781 C 949.507812 276.921875 949.507812 278.671875 947.757812 280.421875 C 947.757812 282.167969 946.007812 282.167969 944.261719 282.167969 L 935.515625 282.167969 C 926.773438 282.167969 919.777344 276.921875 916.277344 269.925781 L 895.292969 220.960938 C 895.292969 219.210938 893.542969 220.960938 893.542969 220.960938 L 902.289062 282.167969 L 912.78125 394.097656 C 912.78125 395.84375 911.03125 395.84375 911.03125 397.59375 C 909.28125 397.59375 909.28125 399.34375 907.535156 399.34375 L 900.539062 399.34375 C 890.046875 399.34375 881.300781 392.347656 881.300781 381.855469 L 865.5625 287.414062 C 863.8125 287.414062 863.8125 287.414062 862.0625 287.414062 L 846.324219 381.855469 C 846.324219 392.347656 837.582031 399.34375 827.085938 399.34375 L 820.089844 399.34375 C 818.34375 399.34375 818.34375 397.59375 816.59375 397.59375 C 816.59375 395.84375 814.84375 395.84375 814.84375 394.097656 L 825.339844 282.167969 L 834.082031 220.960938 M 1056.1875 88.046875 C 1040.449219 88.046875 1026.457031 100.289062 1026.457031 117.777344 L 1026.457031 126.519531 C 1026.457031 142.261719 1040.449219 156.25 1056.1875 156.25 C 1071.925781 156.25 1085.917969 142.261719 1085.917969 126.519531 L 1085.917969 117.777344 C 1085.917969 100.289062 1071.925781 88.046875 1056.1875 88.046875 M 1026.457031 220.960938 C 1026.457031 220.960938 1024.707031 219.210938 1024.707031 220.960938 L 1003.722656 269.925781 C 1000.222656 276.921875 993.226562 282.167969 984.484375 282.167969 L 975.738281 282.167969 C 973.992188 282.167969 972.242188 282.167969 972.242188 280.421875 C 970.492188 278.671875 970.492188 276.921875 972.242188 275.175781 L 998.476562 213.964844 L 1007.21875 189.480469 C 1014.214844 175.488281 1028.207031 164.996094 1043.945312 164.996094 L 1068.429688 164.996094 C 1084.167969 164.996094 1098.160156 175.488281 1105.15625 189.480469 L 1113.898438 213.964844 L 1140.132812 275.175781 C 1141.878906 276.921875 1141.878906 278.671875 1140.132812 280.421875 C 1140.132812 282.167969 1138.382812 282.167969 1136.632812 282.167969 L 1127.890625 282.167969 C 1119.144531 282.167969 1112.148438 276.921875 1108.652344 269.925781 L 1087.667969 220.960938 C 1087.667969 219.210938 1085.917969 220.960938 1085.917969 220.960938 L 1094.660156 282.167969 L 1105.15625 394.097656 C 1105.15625 395.84375 1103.40625 395.84375 1103.40625 397.59375 C 1101.65625 397.59375 1101.65625 399.34375 1099.910156 399.34375 L 1092.914062 399.34375 C 1082.417969 399.34375 1073.675781 392.347656 1073.675781 381.855469 L 1057.9375 287.414062 C 1056.1875 287.414062 1056.1875 287.414062 1054.4375 287.414062 L 1038.699219 381.855469 C 1038.699219 392.347656 1029.953125 399.34375 1019.460938 399.34375 L 1012.464844 399.34375 C 1010.714844 399.34375 1010.714844 397.59375 1008.96875 397.59375 C 1008.96875 395.84375 1007.21875 395.84375 1007.21875 394.097656 L 1017.710938 282.167969 L 1026.457031 220.960938 M 1248.5625 88.046875 C 1232.820312 88.046875 1218.832031 100.289062 1218.832031 117.777344 L 1218.832031 126.519531 C 1218.832031 142.261719 1232.820312 156.25 1248.5625 156.25 C 1264.300781 156.25 1278.292969 142.261719 1278.292969 126.519531 L 1278.292969 117.777344 C 1278.292969 100.289062 1264.300781 88.046875 1248.5625 88.046875 M 1218.832031 220.960938 C 1218.832031 220.960938 1217.082031 219.210938 1217.082031 220.960938 L 1196.09375 269.925781 C 1192.597656 276.921875 1185.601562 282.167969 1176.859375 282.167969 L 1168.113281 282.167969 C 1166.363281 282.167969 1164.617188 282.167969 1164.617188 280.421875 C 1162.867188 278.671875 1162.867188 276.921875 1164.617188 275.175781 L 1190.847656 213.964844 L 1199.59375 189.480469 C 1206.589844 175.488281 1220.578125 164.996094 1236.320312 164.996094 L 1260.804688 164.996094 C 1276.542969 164.996094 1290.535156 175.488281 1297.527344 189.480469 L 1306.273438 213.964844 L 1332.507812 275.175781 C 1334.253906 276.921875 1334.253906 278.671875 1332.507812 280.421875 C 1332.507812 282.167969 1330.757812 282.167969 1329.007812 282.167969 L 1320.265625 282.167969 C 1311.519531 282.167969 1304.523438 276.921875 1301.027344 269.925781 L 1280.039062 220.960938 C 1280.039062 219.210938 1278.292969 220.960938 1278.292969 220.960938 L 1287.035156 282.167969 L 1297.527344 394.097656 C 1297.527344 395.84375 1295.78125 395.84375 1295.78125 397.59375 C 1294.03125 397.59375 1294.03125 399.34375 1292.28125 399.34375 L 1285.285156 399.34375 C 1274.792969 399.34375 1266.050781 392.347656 1266.050781 381.855469 L 1250.308594 287.414062 C 1248.5625 287.414062 1248.5625 287.414062 1246.8125 287.414062 L 1231.074219 381.855469 C 1231.074219 392.347656 1222.328125 399.34375 1211.835938 399.34375 L 1204.839844 399.34375 C 1203.089844 399.34375 1203.089844 397.59375 1201.34375 397.59375 C 1201.34375 395.84375 1199.59375 395.84375 1199.59375 394.097656 L 1210.085938 282.167969 L 1218.832031 220.960938 M 1440.933594 88.046875 C 1425.195312 88.046875 1411.203125 100.289062 1411.203125 117.777344 L 1411.203125 126.519531 C 1411.203125 142.261719 1425.195312 156.25 1440.933594 156.25 C 1456.675781 156.25 1470.664062 142.261719 1470.664062 126.519531 L 1470.664062 117.777344 C 1470.664062 100.289062 1456.675781 88.046875 1440.933594 88.046875 M 1411.203125 220.960938 C 1411.203125 220.960938 1409.457031 219.210938 1409.457031 220.960938 L 1388.46875 269.925781 C 1384.972656 276.921875 1377.976562 282.167969 1369.230469 282.167969 L 1360.488281 282.167969 C 1358.738281 282.167969 1356.988281 282.167969 1356.988281 280.421875 C 1355.242188 278.671875 1355.242188 276.921875 1356.988281 275.175781 L 1383.222656 213.964844 L 1391.96875 189.480469 C 1398.960938 175.488281 1412.953125 164.996094 1428.691406 164.996094 L 1453.175781 164.996094 C 1468.917969 164.996094 1482.90625 175.488281 1489.902344 189.480469 L 1498.648438 213.964844 L 1524.878906 275.175781 C 1526.628906 276.921875 1526.628906 278.671875 1524.878906 280.421875 C 1524.878906 282.167969 1523.132812 282.167969 1521.382812 282.167969 L 1512.636719 282.167969 C 1503.894531 282.167969 1496.898438 276.921875 1493.402344 269.925781 L 1472.414062 220.960938 C 1472.414062 219.210938 1470.664062 220.960938 1470.664062 220.960938 L 1479.410156 282.167969 L 1489.902344 394.097656 C 1489.902344 395.84375 1488.152344 395.84375 1488.152344 397.59375 C 1486.40625 397.59375 1486.40625 399.34375 1484.65625 399.34375 L 1477.660156 399.34375 C 1467.167969 399.34375 1458.421875 392.347656 1458.421875 381.855469 L 1442.683594 287.414062 C 1440.933594 287.414062 1440.933594 287.414062 1439.1875 287.414062 L 1423.445312 381.855469 C 1423.445312 392.347656 1414.703125 399.34375 1404.210938 399.34375 L 1397.214844 399.34375 C 1395.464844 399.34375 1395.464844 397.59375 1393.714844 397.59375 C 1393.714844 395.84375 1391.96875 395.84375 1391.96875 394.097656 L 1402.460938 282.167969 L 1411.203125 220.960938 M 1633.308594 88.046875 C 1617.570312 88.046875 1603.578125 100.289062 1603.578125 117.777344 L 1603.578125 126.519531 C 1603.578125 142.261719 1617.570312 156.25 1633.308594 156.25 C 1649.046875 156.25 1663.039062 142.261719 1663.039062 126.519531 L 1663.039062 117.777344 C 1663.039062 100.289062 1649.046875 88.046875 1633.308594 88.046875 M 1603.578125 220.960938 C 1603.578125 220.960938 1601.828125 219.210938 1601.828125 220.960938 L 1580.84375 269.925781 C 1577.34375 276.921875 1570.351562 282.167969 1561.605469 282.167969 L 1552.863281 282.167969 C 1551.113281 282.167969 1549.363281 282.167969 1549.363281 280.421875 C 1547.613281 278.671875 1547.613281 276.921875 1549.363281 275.175781 L 1575.597656 213.964844 L 1584.339844 189.480469 C 1591.335938 175.488281 1605.328125 164.996094 1621.066406 164.996094 L 1645.550781 164.996094 C 1661.289062 164.996094 1675.28125 175.488281 1682.277344 189.480469 L 1691.019531 213.964844 L 1717.253906 275.175781 C 1719.003906 276.921875 1719.003906 278.671875 1717.253906 280.421875 C 1717.253906 282.167969 1715.503906 282.167969 1713.757812 282.167969 L 1705.011719 282.167969 C 1696.269531 282.167969 1689.273438 276.921875 1685.773438 269.925781 L 1664.789062 220.960938 C 1664.789062 219.210938 1663.039062 220.960938 1663.039062 220.960938 L 1671.785156 282.167969 L 1682.277344 394.097656 C 1682.277344 395.84375 1680.527344 395.84375 1680.527344 397.59375 C 1678.777344 397.59375 1678.777344 399.34375 1677.03125 399.34375 L 1670.035156 399.34375 C 1659.542969 399.34375 1650.796875 392.347656 1650.796875 381.855469 L 1635.058594 287.414062 C 1633.308594 287.414062 1633.308594 287.414062 1631.558594 287.414062 L 1615.820312 381.855469 C 1615.820312 392.347656 1607.074219 399.34375 1596.582031 399.34375 L 1589.585938 399.34375 C 1587.839844 399.34375 1587.839844 397.59375 1586.089844 397.59375 C 1586.089844 395.84375 1584.339844 395.84375 1584.339844 394.097656 L 1594.835938 282.167969 L 1603.578125 220.960938 " clip-rule="nonzero"/></clipPath><clipPath id="fa12429f04"><path d="M 1740 88.046875 L 1911 88.046875 L 1911 399.34375 L 1740 399.34375 Z M 1740 88.046875 " clip-rule="nonzero"/></clipPath><clipPath id="b7bdc63d7f"><path d="M 1825.683594 88.046875 C 1809.941406 88.046875 1795.953125 100.289062 1795.953125 117.777344 L 1795.953125 126.519531 C 1795.953125 142.261719 1809.941406 156.25 1825.683594 156.25 C 1841.421875 156.25 1855.414062 142.261719 1855.414062 126.519531 L 1855.414062 117.777344 C 1855.414062 100.289062 1841.421875 88.046875 1825.683594 88.046875 M 1795.953125 220.960938 C 1795.953125 220.960938 1794.203125 219.210938 1794.203125 220.960938 L 1773.21875 269.925781 C 1769.71875 276.921875 1762.722656 282.167969 1753.980469 282.167969 L 1745.234375 282.167969 C 1743.488281 282.167969 1741.738281 282.167969 1741.738281 280.421875 C 1739.988281 278.671875 1739.988281 276.921875 1741.738281 275.175781 L 1767.96875 213.964844 L 1776.714844 189.480469 C 1783.710938 175.488281 1797.703125 164.996094 1813.441406 164.996094 L 1837.925781 164.996094 C 1853.664062 164.996094 1867.65625 175.488281 1874.652344 189.480469 L 1883.394531 213.964844 L 1909.628906 275.175781 C 1911.375 276.921875 1911.375 278.671875 1909.628906 280.421875 C 1909.628906 282.167969 1907.878906 282.167969 1906.128906 282.167969 L 1897.386719 282.167969 C 1888.640625 282.167969 1881.644531 276.921875 1878.148438 269.925781 L 1857.164062 220.960938 C 1857.164062 219.210938 1855.414062 220.960938 1855.414062 220.960938 L 1864.15625 282.167969 L 1874.652344 394.097656 C 1874.652344 395.84375 1872.902344 395.84375 1872.902344 397.59375 C 1871.152344 397.59375 1871.152344 399.34375 1869.402344 399.34375 L 1862.410156 399.34375 C 1851.914062 399.34375 1843.171875 392.347656 1843.171875 381.855469 L 1827.433594 287.414062 C 1825.683594 287.414062 1825.683594 287.414062 1823.933594 287.414062 L 1808.195312 381.855469 C 1808.195312 392.347656 1799.449219 399.34375 1788.957031 399.34375 L 1781.960938 399.34375 C 1780.210938 399.34375 1780.210938 397.59375 1778.464844 397.59375 C 1778.464844 395.84375 1776.714844 395.84375 1776.714844 394.097656 L 1787.207031 282.167969 L 1795.953125 220.960938 " clip-rule="nonzero"/></clipPath></defs><g clip-path="url(#71016bf001)"><g clip-path="url(#8e55261eb7)"><path fill="#5e39a7" d="M 6.875 88.046875 L 1913.125 88.046875 L 1913.125 399.34375 L 6.875 399.34375 Z M 6.875 88.046875 " fill-opacity="1" fill-rule="nonzero"/></g></g><g clip-path="url(#fa12429f04)"><g clip-path="url(#b7bdc63d7f)"><path fill="#8a65d3" d="M 6.875 88.046875 L 1913.125 88.046875 L 1913.125 399.34375 L 6.875 399.34375 Z M 6.875 88.046875 " fill-opacity="1" fill-rule="nonzero"/></g></g></svg>