<?xml version="1.0" encoding="utf-8"?>
<!-- Generator: Adobe Illustrator 24.1.0, SVG Export Plug-In . SVG Version: 6.00 Build 0)  -->
<svg version="1.1" id="Layer_1" xmlns="http://www.w3.org/2000/svg" xmlns:xlink="http://www.w3.org/1999/xlink" x="0px" y="0px"
	 width="517px" height="448px" viewBox="0 0 517 448" style="enable-background:new 0 0 517 448;" xml:space="preserve">
<style type="text/css">
	.st0{opacity:0.219;fill-rule:evenodd;clip-rule:evenodd;fill:#D6D6D6;enable-background:new    ;}
	.st1{filter:url(#Adobe_OpacityMaskFilter);}
	.st2{fill-rule:evenodd;clip-rule:evenodd;fill:#FFFFFF;}
	.st3{mask:url(#mask-2_1_);fill-rule:evenodd;clip-rule:evenodd;fill:#D8D8D8;fill-opacity:0.2883;}
	.st4{fill-rule:evenodd;clip-rule:evenodd;fill:#FAFAFA;}
	.st5{filter:url(#Adobe_OpacityMaskFilter_1_);}
	.st6{mask:url(#mask-4_1_);fill-rule:evenodd;clip-rule:evenodd;fill:#D8D8D8;fill-opacity:0.2883;}
	.st7{fill-rule:evenodd;clip-rule:evenodd;fill:#06DCD9;}
	.st8{filter:url(#Adobe_OpacityMaskFilter_2_);}
	.st9{mask:url(#mask-6_1_);fill-rule:evenodd;clip-rule:evenodd;fill:#D8D8D8;fill-opacity:0.2883;}
	.st10{filter:url(#Adobe_OpacityMaskFilter_3_);}
	.st11{mask:url(#mask-8_1_);fill-rule:evenodd;clip-rule:evenodd;fill:#D8D8D8;fill-opacity:0.2883;}
	
		.st12{fill-rule:evenodd;clip-rule:evenodd;fill:#FFFFFF;stroke:#000000;stroke-width:4;stroke-linecap:round;stroke-linejoin:round;}
	.st13{fill:none;stroke:#000000;stroke-width:4;stroke-linecap:round;stroke-linejoin:round;}
	
		.st14{fill-rule:evenodd;clip-rule:evenodd;fill:#FFBC07;stroke:#000000;stroke-width:4;stroke-linecap:round;stroke-linejoin:round;}
	.st15{filter:url(#Adobe_OpacityMaskFilter_4_);}
	.st16{mask:url(#mask-10_1_);fill-rule:evenodd;clip-rule:evenodd;fill:#FED50C;}
	.st17{filter:url(#Adobe_OpacityMaskFilter_5_);}
	.st18{mask:url(#mask-12_1_);fill-rule:evenodd;clip-rule:evenodd;fill:#FED50C;}
	.st19{filter:url(#Adobe_OpacityMaskFilter_6_);}
	.st20{mask:url(#mask-14_1_);fill-rule:evenodd;clip-rule:evenodd;fill:#FED50C;}
	
		.st21{fill-rule:evenodd;clip-rule:evenodd;fill:#FFFFFF;stroke:#000000;stroke-width:3.2;stroke-linecap:round;stroke-linejoin:round;}
	.st22{fill:none;stroke:#000000;stroke-width:3.2;stroke-linecap:round;stroke-linejoin:round;}
	
		.st23{fill-rule:evenodd;clip-rule:evenodd;fill:#FFBC07;stroke:#000000;stroke-width:3.2;stroke-linecap:round;stroke-linejoin:round;}
	.st24{filter:url(#Adobe_OpacityMaskFilter_7_);}
	.st25{mask:url(#mask-16_1_);fill-rule:evenodd;clip-rule:evenodd;fill:#D8D8D8;fill-opacity:0.2883;}
	.st26{fill-rule:evenodd;clip-rule:evenodd;fill:#7156D6;}
	.st27{filter:url(#Adobe_OpacityMaskFilter_8_);}
	.st28{mask:url(#mask-18_1_);fill-rule:evenodd;clip-rule:evenodd;fill:#D8D8D8;fill-opacity:0.2883;}
	.st29{filter:url(#Adobe_OpacityMaskFilter_9_);}
	.st30{mask:url(#mask-20_1_);fill-rule:evenodd;clip-rule:evenodd;fill:#FAFAFA;}
	.st31{enable-background:new    ;}
</style>
<desc>Created with Sketch.</desc>
<g id="Page-1">
	<g id="_x31_.8-integrations" transform="translate(-187.000000, -1368.000000)">
		<g id="speed" transform="translate(155.000000, 987.000000)">
			<g id="native-integrations" transform="translate(0.000000, 339.000000)">
				<path id="Fill-1" class="st0" d="M361.6,473.6c-43.1-9.3-83.4-31.6-128.9-59.2c-44.9-27.6-90-52.8-129-72.8
					c-38.2-21.1-70.2-37.1-71.7-71.2c-1.6-32,29.6-84.5,91.6-128.2c60.7-42.9,152.2-76.9,240-53.4c88.4,20.4,146.1,94.2,163.6,167.2
					c18.9,73.8-2.2,146.9-39.5,183.7C449.3,478.2,404,482.4,361.6,473.6z"/>
				<g id="chat" transform="translate(45.000000, 92.000000)">
					
						<g id="Group-10" transform="translate(110.500000, 76.000000) scale(-1, 1) translate(-110.500000, -76.000000) translate(44.000000, 38.000000)">
						<g id="Group-3" transform="translate(0.000000, 0.207559)">
							<g id="Clip-2">
							</g>
							<defs>
								<filter id="Adobe_OpacityMaskFilter" filterUnits="userSpaceOnUse">
									<feColorMatrix  type="matrix" values="1 0 0 0 0  0 1 0 0 0  0 0 1 0 0  0 0 0 1 0"/>
								</filter>
							</defs>
							<mask maskUnits="userSpaceOnUse" id="mask-2_1_">
								<g class="st1">
									<path id="path-1_1_" class="st2" d="M132.5,0.4v57.5H43c0,0-6.6,13.2-18,17c0,0,3.6-9.3-0.2-17H0V0.4H132.5z"/>
								</g>
							</mask>
							<path id="Fill-1_1_" class="st3" d="M132.5,0.4v57.5H43c0,0-6.6,13.2-18,17c0,0,3.6-9.3-0.2-17H0V0.4H132.5z"/>
						</g>
						<path id="Fill-4" class="st2" d="M128.9,2.6v54.3H39.4c0,0,0,10.9-10.7,14.5c0,0,3.6-7.2,0-14.5H3.6V2.6H128.9z"/>
						<polygon id="Fill-6" class="st4" points="18.3,20.7 89.9,20.7 89.9,13.5 18.3,13.5 						"/>
						<polygon id="Fill-8" class="st4" points="18.3,31.6 115,31.6 115,24.3 18.3,24.3 						"/>
						<polygon id="Fill-9" class="st4" points="18.3,42.4 104.3,42.4 104.3,35.2 18.3,35.2 						"/>
					</g>
					<g id="Group-10-Copy">
						<g id="Group-3_1_" transform="translate(0.000000, 0.207559)">
							<g id="Clip-2_1_">
							</g>
							<defs>
								<filter id="Adobe_OpacityMaskFilter_1_" filterUnits="userSpaceOnUse" x="0" y="0.4" width="132.5" height="74.4">
									<feColorMatrix  type="matrix" values="1 0 0 0 0  0 1 0 0 0  0 0 1 0 0  0 0 0 1 0"/>
								</filter>
							</defs>
							<mask maskUnits="userSpaceOnUse" x="0" y="0.4" width="132.5" height="74.4" id="mask-4_1_">
								<g class="st5">
									<path id="path-3_1_" class="st2" d="M132.5,0.4v57.5H43c0,0-6.6,13.2-18,17c0,0,3.6-9.3-0.2-17H0V0.4H132.5z"/>
								</g>
							</mask>
							<path id="Fill-1_2_" class="st6" d="M132.5,0.4v57.5H43c0,0-6.6,13.2-18,17c0,0,3.6-9.3-0.2-17H0V0.4H132.5z"/>
						</g>
						<path id="Fill-4_1_" class="st2" d="M128.9,2.6v54.3H39.4c0,0,0,10.9-10.7,14.5c0,0,3.6-7.2,0-14.5H3.6V2.6H128.9z"/>
						<polygon id="Fill-6_1_" class="st7" points="18.3,27.3 89.9,27.3 89.9,20 18.3,20 						"/>
						<polygon id="Fill-8_1_" class="st7" points="18.3,38.1 115,38.1 115,30.9 18.3,30.9 						"/>
					</g>
				</g>
				<g id="chat-copy-2" transform="translate(401.000000, 181.000000)">
					
						<g id="Group-10_1_" transform="translate(92.500000, 72.000000) scale(-1, 1) translate(-92.500000, -72.000000) translate(37.000000, 40.000000)">
						<g id="Group-3_2_" transform="translate(0.000000, 0.172055)">
							<g id="Clip-2_2_">
							</g>
							<defs>
								<filter id="Adobe_OpacityMaskFilter_2_" filterUnits="userSpaceOnUse">
									<feColorMatrix  type="matrix" values="1 0 0 0 0  0 1 0 0 0  0 0 1 0 0  0 0 0 1 0"/>
								</filter>
							</defs>
							<mask maskUnits="userSpaceOnUse" id="mask-6_1_">
								<g class="st8">
									<path id="path-5_1_" class="st2" d="M110.6,0.3V48H35.9c0,0-5.5,10.9-15,14.1c0,0,3-7.7-0.1-14.1H0V0.3H110.6z"/>
								</g>
							</mask>
							<path id="Fill-1_3_" class="st9" d="M110.6,0.3V48H35.9c0,0-5.5,10.9-15,14.1c0,0,3-7.7-0.1-14.1H0V0.3H110.6z"/>
						</g>
						<path id="Fill-4_2_" class="st2" d="M107.6,2.2v45H32.9c0,0,0,9-9,12c0,0,3-6,0-12H3v-45H107.6z"/>
						<polygon id="Fill-6_2_" class="st4" points="15.3,17.2 75.1,17.2 75.1,11.2 15.3,11.2 						"/>
						<polygon id="Fill-8_2_" class="st4" points="15.3,26.2 96,26.2 96,20.2 15.3,20.2 						"/>
						<polygon id="Fill-9_1_" class="st4" points="15.3,35.2 87,35.2 87,29.2 15.3,29.2 						"/>
					</g>
					<g id="Group-10-Copy_1_">
						<g id="Group-3_3_" transform="translate(0.000000, 0.172055)">
							<g id="Clip-2_3_">
							</g>
							<defs>
								<filter id="Adobe_OpacityMaskFilter_3_" filterUnits="userSpaceOnUse" x="0" y="0.3" width="110.6" height="61.7">
									<feColorMatrix  type="matrix" values="1 0 0 0 0  0 1 0 0 0  0 0 1 0 0  0 0 0 1 0"/>
								</filter>
							</defs>
							<mask maskUnits="userSpaceOnUse" x="0" y="0.3" width="110.6" height="61.7" id="mask-8_1_">
								<g class="st10">
									<path id="path-7_1_" class="st2" d="M110.6,0.3V48H35.9c0,0-5.5,10.9-15,14.1c0,0,3-7.7-0.1-14.1H0V0.3H110.6z"/>
								</g>
							</mask>
							<path id="Fill-1_4_" class="st11" d="M110.6,0.3V48H35.9c0,0-5.5,10.9-15,14.1c0,0,3-7.7-0.1-14.1H0V0.3H110.6z"/>
						</g>
						<path id="Fill-4_3_" class="st2" d="M107.6,2.2v45H32.9c0,0,0,9-9,12c0,0,3-6,0-12H3v-45H107.6z"/>
						<polygon id="Fill-6_3_" class="st7" points="15.3,22.6 75.1,22.6 75.1,16.6 15.3,16.6 						"/>
						<polygon id="Fill-8_3_" class="st7" points="15.3,31.6 96,31.6 96,25.6 15.3,25.6 						"/>
					</g>
				</g>
				<g id="lead" transform="translate(153.000000, 200.000000)">
					<path id="Stroke-9" class="st12" d="M78.3,70.5c0,1.4,1.2,2.6,2.6,2.6h13c2.9,0,5.2-2.3,5.2-5.2V5.5c0-2.9-2.3-5.2-5.2-5.2H5.5
						c-2.9,0-5.2,2.3-5.2,5.2v62.4c0,2.9,2.3,5.2,5.2,5.2h10.4c1.4,0,2.6-1.2,2.6-2.6c0-5.7,4.7-10.4,10.4-10.4
						c5.7,0,10.4,4.7,10.4,10.4c0,1.4,1.2,2.6,2.6,2.6h13c1.4,0,2.6-1.2,2.6-2.6c0-5.7,4.7-10.4,10.4-10.4S78.3,64.8,78.3,70.5z"/>
					<line id="Stroke-3" class="st13" x1="60.1" y1="21.1" x2="83.5" y2="21.1"/>
					<line id="Stroke-5" class="st13" x1="60.1" y1="36.7" x2="73.1" y2="36.7"/>
					<path id="Stroke-7" class="st14" d="M10.7,52.3c0.1-2.5,0.7-5,1.8-7.3c1.3-2.5,6.6-4.3,13.3-6.8c1.8-0.7,1.5-5.4,0.7-6.3
						c-2.6-2.8-3.8-6.6-3.5-10.3c-0.2-3.2,1.3-6.2,4.1-7.8c2.7-1.7,6.1-1.7,8.8,0c2.7,1.6,4.3,4.7,4.1,7.8c0.4,3.8-0.9,7.6-3.5,10.3
						c-0.8,0.9-1.1,5.6,0.7,6.3c6.7,2.5,12,4.2,13.3,6.8c1.1,2.3,1.7,4.8,1.8,7.3H10.7z"/>
				</g>
				<g id="lead-copy" transform="translate(328.000000, 132.000000)">
					<path id="Stroke-9_1_" class="st12" d="M78.3,70.5c0,1.4,1.2,2.6,2.6,2.6h13c2.9,0,5.2-2.3,5.2-5.2V5.5c0-2.9-2.3-5.2-5.2-5.2
						H5.5c-2.9,0-5.2,2.3-5.2,5.2v62.4c0,2.9,2.3,5.2,5.2,5.2h10.4c1.4,0,2.6-1.2,2.6-2.6c0-5.7,4.7-10.4,10.4-10.4
						c5.7,0,10.4,4.7,10.4,10.4c0,1.4,1.2,2.6,2.6,2.6h13c1.4,0,2.6-1.2,2.6-2.6c0-5.7,4.7-10.4,10.4-10.4S78.3,64.8,78.3,70.5z"/>
					<line id="Stroke-3_1_" class="st13" x1="60.1" y1="21.1" x2="83.5" y2="21.1"/>
					<line id="Stroke-5_1_" class="st13" x1="60.1" y1="36.7" x2="73.1" y2="36.7"/>
					<path id="Stroke-7_1_" class="st14" d="M10.7,52.3c0.1-2.5,0.7-5,1.8-7.3c1.3-2.5,6.6-4.3,13.3-6.8c1.8-0.7,1.5-5.4,0.7-6.3
						c-2.6-2.8-3.8-6.6-3.5-10.3c-0.2-3.2,1.3-6.2,4.1-7.8c2.7-1.7,6.1-1.7,8.8,0c2.7,1.6,4.3,4.7,4.1,7.8c0.4,3.8-0.9,7.6-3.5,10.3
						c-0.8,0.9-1.1,5.6,0.7,6.3c6.7,2.5,12,4.2,13.3,6.8c1.1,2.3,1.7,4.8,1.8,7.3H10.7z"/>
				</g>
				<g id="Group-6" transform="translate(293.000000, 182.000000)">
					<g id="Group-3_4_">
						<g id="Clip-2_4_">
						</g>
						<defs>
							<filter id="Adobe_OpacityMaskFilter_4_" filterUnits="userSpaceOnUse" x="0" y="0" width="48" height="48">
								<feColorMatrix  type="matrix" values="1 0 0 0 0  0 1 0 0 0  0 0 1 0 0  0 0 0 1 0"/>
							</filter>
						</defs>
						<mask maskUnits="userSpaceOnUse" x="0" y="0" width="48" height="48" id="mask-10_1_">
							<g class="st15">
								<polygon id="path-9_1_" class="st2" points="0,0 48,0 48,48 0,48 								"/>
							</g>
						</mask>
						<path id="Fill-1_5_" class="st16" d="M24,0c13.2,0,24,10.8,24,24S37.2,48,24,48S0,37.2,0,24S10.8,0,24,0"/>
					</g>
					<path id="Fill-4_4_" class="st2" d="M28,23.9l-6.8-2.7c-1.3-0.5-2-1.9-1.8-3.3c0.3-1.4,1.5-2.4,2.9-2.4h1.6h2.2H29
						c0.8,0,1.5-0.7,1.5-1.5c0-0.8-0.7-1.5-1.5-1.5h-2.5v-0.9c0-0.8-0.7-1.5-1.5-1.5c-0.8,0-1.5,0.7-1.5,1.5v0.9h-1.3
						c-2.8,0-5.3,2-5.8,4.8c-0.5,2.8,1,5.6,3.6,6.6l6.8,2.7c1.3,0.5,2.1,1.9,1.8,3.3c-0.3,1.3-1.8,2.4-2.8,2.4c-1.4,0-6.8,0-6.8,0
						c-0.8,0-1.5,0.7-1.5,1.5c0,0.8,0.7,1.5,1.5,1.5h4.4v1.1c0,0.8,0.7,1.5,1.5,1.5c0.8,0,1.5-0.7,1.5-1.5v-1.1
						c2.5-0.3,4.6-2.2,5.1-4.7C32.1,27.7,30.6,24.9,28,23.9"/>
				</g>
				<g id="Group-6-Copy" transform="translate(235.000000, 118.000000)">
					<g id="Group-3_5_">
						<g id="Clip-2_5_">
						</g>
						<defs>
							<filter id="Adobe_OpacityMaskFilter_5_" filterUnits="userSpaceOnUse" x="0" y="0" width="38.4" height="38.4">
								<feColorMatrix  type="matrix" values="1 0 0 0 0  0 1 0 0 0  0 0 1 0 0  0 0 0 1 0"/>
							</filter>
						</defs>
						<mask maskUnits="userSpaceOnUse" x="0" y="0" width="38.4" height="38.4" id="mask-12_1_">
							<g class="st17">
								<polygon id="path-11_1_" class="st2" points="0,0 38.4,0 38.4,38.4 0,38.4 								"/>
							</g>
						</mask>
						<path id="Fill-1_6_" class="st18" d="M19.2,0c10.6,0,19.2,8.6,19.2,19.2s-8.6,19.2-19.2,19.2S0,29.8,0,19.2S8.6,0,19.2,0"/>
					</g>
					<path id="Fill-4_5_" class="st2" d="M22.4,19.1l-5.4-2.2c-1-0.4-1.6-1.5-1.4-2.6c0.2-1.1,1.2-1.9,2.3-1.9h1.3h1.8h2.3
						c0.7,0,1.2-0.5,1.2-1.2c0-0.7-0.5-1.2-1.2-1.2h-2V9.3c0-0.7-0.5-1.2-1.2-1.2c-0.7,0-1.2,0.5-1.2,1.2V10h-1
						c-2.3,0-4.2,1.6-4.7,3.8c-0.4,2.2,0.8,4.5,2.9,5.3l5.4,2.2c1,0.4,1.6,1.5,1.4,2.6c-0.2,1.1-1.5,1.9-2.2,1.9c-1.1,0-5.5,0-5.5,0
						c-0.7,0-1.2,0.5-1.2,1.2s0.5,1.2,1.2,1.2h3.6v0.9c0,0.7,0.5,1.2,1.2,1.2c0.7,0,1.2-0.5,1.2-1.2v-0.9c2-0.3,3.7-1.8,4.1-3.8
						C25.7,22.2,24.5,19.9,22.4,19.1"/>
				</g>
				<g id="Group-6-Copy-2" transform="translate(309.000000, 42.000000)">
					<g id="Group-3_6_">
						<g id="Clip-2_6_">
						</g>
						<defs>
							<filter id="Adobe_OpacityMaskFilter_6_" filterUnits="userSpaceOnUse" x="0" y="0" width="38.4" height="38.4">
								<feColorMatrix  type="matrix" values="1 0 0 0 0  0 1 0 0 0  0 0 1 0 0  0 0 0 1 0"/>
							</filter>
						</defs>
						<mask maskUnits="userSpaceOnUse" x="0" y="0" width="38.4" height="38.4" id="mask-14_1_">
							<g class="st19">
								<polygon id="path-13_1_" class="st2" points="0,0 38.4,0 38.4,38.4 0,38.4 								"/>
							</g>
						</mask>
						<path id="Fill-1_7_" class="st20" d="M19.2,0c10.6,0,19.2,8.6,19.2,19.2s-8.6,19.2-19.2,19.2S0,29.8,0,19.2S8.6,0,19.2,0"/>
					</g>
					<path id="Fill-4_6_" class="st2" d="M22.4,19.1l-5.4-2.2c-1-0.4-1.6-1.5-1.4-2.6c0.2-1.1,1.2-1.9,2.3-1.9h1.3h1.8h2.3
						c0.7,0,1.2-0.5,1.2-1.2c0-0.7-0.5-1.2-1.2-1.2h-2V9.3c0-0.7-0.5-1.2-1.2-1.2c-0.7,0-1.2,0.5-1.2,1.2V10h-1
						c-2.3,0-4.2,1.6-4.7,3.8c-0.4,2.2,0.8,4.5,2.9,5.3l5.4,2.2c1,0.4,1.6,1.5,1.4,2.6c-0.2,1.1-1.5,1.9-2.2,1.9c-1.1,0-5.5,0-5.5,0
						c-0.7,0-1.2,0.5-1.2,1.2s0.5,1.2,1.2,1.2h3.6v0.9c0,0.7,0.5,1.2,1.2,1.2c0.7,0,1.2-0.5,1.2-1.2v-0.9c2-0.3,3.7-1.8,4.1-3.8
						C25.7,22.2,24.5,19.9,22.4,19.1"/>
				</g>
				<g id="lead-copy-2" transform="translate(198.000000, 51.000000)">
					<path id="Stroke-9_2_" class="st21" d="M62.6,56.4c0,1.1,0.9,2.1,2.1,2.1h10.4c2.3,0,4.2-1.9,4.2-4.2V4.4
						c0-2.3-1.9-4.2-4.2-4.2H4.4c-2.3,0-4.2,1.9-4.2,4.2v49.9c0,2.3,1.9,4.2,4.2,4.2h8.3c1.1,0,2.1-0.9,2.1-2.1
						c0-4.6,3.7-8.3,8.3-8.3c4.6,0,8.3,3.7,8.3,8.3c0,1.1,0.9,2.1,2.1,2.1h10.4c1.1,0,2.1-0.9,2.1-2.1c0-4.6,3.7-8.3,8.3-8.3
						S62.6,51.8,62.6,56.4z"/>
					<line id="Stroke-3_2_" class="st22" x1="48.1" y1="16.9" x2="66.8" y2="16.9"/>
					<line id="Stroke-5_2_" class="st22" x1="48.1" y1="29.4" x2="58.5" y2="29.4"/>
					<path id="Stroke-7_2_" class="st23" d="M8.6,41.8c0.1-2,0.6-4,1.4-5.9c1-2,5.3-3.5,10.6-5.4c1.4-0.5,1.2-4.3,0.6-5
						c-2.1-2.2-3.1-5.2-2.8-8.3c-0.2-2.5,1.1-5,3.2-6.3c2.2-1.3,4.9-1.3,7.1,0c2.2,1.3,3.4,3.7,3.2,6.3c0.3,3-0.7,6-2.8,8.3
						c-0.6,0.7-0.9,4.5,0.6,5c5.3,2,9.6,3.4,10.6,5.4c0.9,1.8,1.4,3.8,1.4,5.9H8.6z"/>
				</g>
				<g id="chat-copy" transform="translate(335.000000, 67.000000)">
					
						<g id="Group-10-Copy_2_" transform="translate(132.000000, 75.500000) scale(-1, 1) translate(-132.000000, -75.500000) translate(63.000000, 37.000000)">
						<g id="Group-3_7_">
							<g id="Clip-2_7_">
							</g>
							<defs>
								<filter id="Adobe_OpacityMaskFilter_7_" filterUnits="userSpaceOnUse">
									<feColorMatrix  type="matrix" values="1 0 0 0 0  0 1 0 0 0  0 0 1 0 0  0 0 0 1 0"/>
								</filter>
							</defs>
							<mask maskUnits="userSpaceOnUse" id="mask-16_1_">
								<g class="st24">
									<path id="path-15_1_" class="st2" d="M137.7,0.4v58.7h-93c0,0-6.9,13.4-18.7,17.3c0,0,3.8-9.5-0.2-17.3H0V0.4H137.7z"/>
								</g>
							</mask>
							<path id="Fill-1_8_" class="st25" d="M137.7,0.4v58.7h-93c0,0-6.9,13.4-18.7,17.3c0,0,3.8-9.5-0.2-17.3H0V0.4H137.7z"/>
						</g>
						<path id="Fill-4_7_" class="st2" d="M133.8,2.1v55.8H40.5c0,0,0,11.2-11.2,14.9c0,0,3.7-7.4,0-14.9H3.2V2.1H133.8z"/>
						<polygon id="Fill-6_4_" class="st26" points="19.1,27.4 93.4,27.4 93.4,20 19.1,20 						"/>
						<polygon id="Fill-8_4_" class="st26" points="19.1,39 120,39 120,31.6 19.1,31.6 						"/>
					</g>
					<g id="Group-10-Copy-2">
						<g id="Group-3_8_" transform="translate(0.000000, 0.160210)">
							<g id="Clip-2_8_">
							</g>
							<defs>
								<filter id="Adobe_OpacityMaskFilter_8_" filterUnits="userSpaceOnUse" x="0" y="0.3" width="104.2" height="57.4">
									<feColorMatrix  type="matrix" values="1 0 0 0 0  0 1 0 0 0  0 0 1 0 0  0 0 0 1 0"/>
								</filter>
							</defs>
							<mask maskUnits="userSpaceOnUse" x="0" y="0.3" width="104.2" height="57.4" id="mask-18_1_">
								<g class="st27">
									<path id="path-17_1_" class="st2" d="M104.2,0.3v44.3H33.8c0,0-5.2,10.2-14.1,13.1c0,0,2.8-7.2-0.1-13.1H0V0.3H104.2z"/>
								</g>
							</mask>
							<path id="Fill-1_9_" class="st28" d="M104.2,0.3v44.3H33.8c0,0-5.2,10.2-14.1,13.1c0,0,2.8-7.2-0.1-13.1H0V0.3H104.2z"/>
						</g>
						<path id="Fill-4_8_" class="st2" d="M101.3,2V44H31c0,0,0,8.4-8.4,11.2c0,0,2.8-5.6,0-11.2H2.8V2H101.3z"/>
						<polygon id="Fill-6_5_" class="st4" points="14.8,21.4 71.1,21.4 71.1,15.8 14.8,15.8 						"/>
						<polygon id="Fill-8_5_" class="st4" points="14.8,29.8 90.9,29.8 90.9,24.2 14.8,24.2 						"/>
					</g>
				</g>
				<g id="Group-21" transform="translate(67.000000, 330.000000)">
					<g id="Group-3_9_">
						<g id="Clip-2_9_">
						</g>
						<defs>
							<filter id="Adobe_OpacityMaskFilter_9_" filterUnits="userSpaceOnUse" x="0.6" y="0.2" width="191.2" height="159.4">
								<feColorMatrix  type="matrix" values="1 0 0 0 0  0 1 0 0 0  0 0 1 0 0  0 0 0 1 0"/>
							</filter>
						</defs>
						<mask maskUnits="userSpaceOnUse" x="0.6" y="0.2" width="191.2" height="159.4" id="mask-20_1_">
							<g class="st29">
								<polygon id="path-19_1_" class="st2" points="0.6,0.2 191.7,0.2 191.7,159.6 0.6,159.6 								"/>
							</g>
						</mask>
						<path id="Fill-1_10_" class="st30" d="M144.5,18.6c46.1,31.2,60.2,92.3,34.5,140.9l-11.6-7.9c21.4-42.3,9-94.7-30.7-121.6
							C97,3.2,43.6,11.1,12.2,46.5L0.6,38.7C36.4-3.1,98.4-12.6,144.5,18.6"/>
					</g>
					<path id="Fill-4_9_" class="st4" d="M126.2,44c30,20.5,39,61.1,22.8,95l-11.6-7.9c12-27.4,4.7-59.4-19-75.5
						C94.8,39.4,62.6,44.3,41.6,65.7l-11.6-8C55.4,30.1,96.3,23.5,126.2,44"/>
					<path id="Fill-6_6_" class="st4" d="M107.5,71.3c15.2,10.3,20.3,30.4,13.7,48.7l-12-8.1c2.9-11.4-0.5-23.1-9.5-29.1
						c-9-6.1-21-4.9-30.7,2l-12-8.1C71.6,63.7,92.3,61,107.5,71.3"/>
				</g>
				<g id="Group-6_1_" transform="translate(198.000000, 237.000000)">
					<g id="Group-5" transform="translate(0.000000, 0.027000)">
						<path id="Stroke-3_3_" class="st12" d="M203.5,118c2.3-0.3,4-2.2,3.9-4.5v-19c0-2.3-1.7-4.2-3.9-4.5l-20.3-2.5
							c-2.1-9.9-6-19.4-11.6-27.8l12.5-16.2c1.4-1.8,1.2-4.3-0.4-5.9L170.4,24c-1.6-1.6-4.1-1.8-5.9-0.4l-16.2,12.6
							c-8.5-5.6-17.9-9.5-27.8-11.6L118,4.4c-0.3-2.3-2.2-4-4.5-4h-19c-2.3,0-4.2,1.7-4.5,4l-2.5,20.2c-9.9,2.1-19.3,6-27.8,11.6
							L43.5,23.7c-1.8-1.4-4.3-1.2-5.9,0.4L24,37.5c-1.6,1.6-1.8,4.2-0.4,5.9l12.6,16.2c-5.6,8.5-9.5,17.9-11.6,27.8L4.4,90
							c-2.3,0.3-4,2.2-4,4.5v19.1c0,2.3,1.7,4.2,4,4.5l20.3,2.5c2.1,9.9,6,19.4,11.6,27.8l-12.6,16c-1.4,1.8-1.2,4.3,0.4,5.9
							l13.5,13.5c1.6,1.6,4.1,1.8,5.9,0.4l16.2-12.6c8.5,5.6,17.9,9.5,27.8,11.6l2.5,20.2c0.3,2.3,2.2,4,4.5,3.9h19.1
							c2.3,0,4.2-1.7,4.5-3.9l2.5-20.2c9.9-2.1,19.4-6,27.8-11.6l16.2,12.6c1.8,1.4,4.3,1.2,5.9-0.4l13.5-13.5
							c1.6-1.6,1.8-4.1,0.4-5.9l-12.6-16.2c5.6-8.5,9.5-17.9,11.6-27.8L203.5,118z"/>
						<path id="Stroke-1" class="st13" d="M103.3,166.7c34.8,0,63-28.2,63-63s-28.2-63-63-63s-63,28.2-63,63S68.5,166.7,103.3,166.7
							z"/>
					</g>
					<g class="st31">
						<path d="M97.7,119.6h-5.6c-0.6,0-1.1-0.2-1.6-0.5c-0.4-0.3-0.7-0.7-0.9-1.2l-2.9-8H70.6l-2.9,8c-0.1,0.4-0.4,0.8-0.9,1.1
							s-0.9,0.5-1.6,0.5h-5.6l15.3-39h7.4L97.7,119.6z M72.5,104.9h12.4l-4.8-13c-0.2-0.6-0.5-1.3-0.7-2s-0.5-1.6-0.8-2.6
							c-0.3,0.9-0.5,1.8-0.7,2.6c-0.2,0.8-0.5,1.5-0.7,2.1L72.5,104.9z"/>
						<path d="M109.3,105.9v13.7H102v-39h12.7c2.6,0,4.9,0.3,6.8,0.9c1.9,0.6,3.5,1.5,4.7,2.6c1.2,1.1,2.2,2.4,2.8,3.9
							c0.6,1.5,0.9,3.2,0.9,5c0,1.9-0.3,3.6-0.9,5.2s-1.6,2.9-2.8,4.1s-2.8,2-4.7,2.6c-1.9,0.6-4.1,0.9-6.6,0.9H109.3z M109.3,100.2
							h5.5c1.3,0,2.5-0.2,3.5-0.5c1-0.3,1.8-0.8,2.5-1.4s1.1-1.4,1.5-2.3c0.3-0.9,0.5-1.9,0.5-3c0-1-0.2-2-0.5-2.8s-0.8-1.6-1.5-2.2
							s-1.5-1-2.5-1.4c-1-0.3-2.2-0.5-3.5-0.5h-5.5V100.2z"/>
						<path d="M143.7,119.6h-7.3v-39h7.3V119.6z"/>
					</g>
				</g>
			</g>
		</g>
	</g>
</g>
</svg>
